# AST/ASF file generated using VICON BodyLanguage
# -----------------------------------------------
:version 1.10
:name VICON
:units
  mass 1.0
  length 0.45
  angle deg
:documentation
   .ast/.asf automatically generated from VICON data using
   VICON BodyBuilder and BodyLanguage model FoxedUp or BRILLIANT.MOD
:root
   order TX TY TZ RX RY RZ
   axis XYZ
   position 0 0 0  
   orientation 0 0 0 
:bonedata
  begin
     id 1 
     name lhipjoint
     direction 0.682418 -0.694059 0.22932 
     length 2.25561 
     axis 0 0 0  XYZ
  end
  begin
     id 2 
     name lfemur
     direction 0.34202 -0.939693 0  
     length 6.96448  
     axis 0 0 20  XYZ
    dof rx ry rz
    limits (-160.0 20.0)
           (-70.0 70.0)
           (-60.0 70.0)
  end
  begin
     id 3 
     name ltibia
     direction 0.34202 -0.939693 0   
     length 6.88553   
     axis 0 0 20   XYZ
    dof rx
    limits (-10.0 170.0)
  end
  begin
     id 4 
     name lfoot
     direction 0.0723587 -0.198804 0.977364   
     length 1.88518   
     axis -90 7.62852e-016 20   XYZ
    dof rx rz
    limits (-45.0 90.0)
           (-70.0 20.0)
  end
  begin
     id 5 
     name ltoes
     direction 1.53558e-011 -4.21962e-011 1   
     length 0.952124   
     axis -90 7.62852e-016 20   XYZ
    dof rx
    limits (-90.0 20.0)
  end
  begin
     id 6 
     name rhipjoint
     direction -0.657603 -0.71533 0.236348   
     length 2.18854  
     axis 0 0 0  XYZ 
  end
  begin
     id 7 
     name rfemur
     direction -0.34202 -0.939693 0   
     length 6.86686   
     axis 0 0 -20   XYZ
    dof rx ry rz
    limits (-160.0 20.0)
           (-70.0 70.0)
           (-70.0 60.0)
  end
  begin
     id 8 
     name rtibia
     direction -0.34202 -0.939693 0   
     length 6.59503   
     axis 0 0 -20   XYZ
    dof rx
    limits (-10.0 170.0)
 end
 begin
     id 9 
     name rfoot
     direction -0.101977 -0.280179 0.954516   
     length 1.93723  
     axis -90 -7.62852e-016 -20   XYZ
    dof rx rz
    limits (-45.0 90.0)
           (-20.0 70.0)
  end
  begin
     id 10 
     name rtoes
     direction -1.53564e-011 -4.21897e-011 1   
     length 0.970315   
     axis -90 -7.62852e-016 -20   XYZ
    dof rx
    limits (-90.0 20.0)
  end
  begin
     id 11 
     name lowerback
     direction -0.0339559 0.999421 -0.00235966   
     length 1.88543   
     axis 0 0 0   XYZ
    dof rx ry rz
    limits (-20.0 45.0)
           (-30.0 30.0)
           (-30.0 30.0)
  end
  begin
     id 12 
     name upperback
     direction 0.00401003 0.999739 0.0224689   
     length 1.8856   
     axis 0 0 0   XYZ
    dof rx ry rz
    limits (-20.0 45.0)
           (-30.0 30.0)
           (-30.0 30.0)
  end
  begin
     id 13 
     name thorax
     direction 0.0198619 0.999546 0.0226536   
     length 1.88352   
     axis 0 0 0   XYZ
    dof rx ry rz
    limits (-20.0 45.0)
           (-30.0 30.0)
           (-30.0 30.0)
  end
  begin
     id 14 
     name lowerneck
     direction -0.0461848 0.998632 0.0245198   
     length 1.34895   
     axis 0 0 0   XYZ
    dof rx ry rz
    limits (-20.0 45.0)
           (-30.0 30.0)
           (-30.0 30.0)
  end
  begin
     id 15 
     name upperneck
     direction -0.0180627 0.994724 -0.100984   
     length 1.35214   
     axis 0 0 0   XYZ
    dof rx ry rz
    limits (-20.0 45.0)
           (-30.0 30.0)
           (-30.0 30.0)
  end
  begin
     id 16
     name head
     direction -0.00374772 0.999293 -0.037403  
     length 1.3568  
     axis 0 0 0   XYZ
    dof rx ry rz
    limits (-20.0 45.0)
           (-30.0 30.0)
           (-30.0 30.0)
  end
  begin
     id 17 
     name lclavicle
     direction 0.971773 0.191119 0.138311  
     length 2.84954  
     axis 0 0 0   XYZ
    dof ry rz
    limits (-20.0 10.0)
           (0.0 20.0)
  end
  begin
     id 18 
     name lhumerus
     direction 1 -4.4897e-011 -2.43761e-027   
     length 4.40919   
     axis 180 -30 -90   XYZ
    dof rx ry rz
    limits (-60.0 90.0)
           (-90.0 90.0)
           (-90.0 90.0)
  end
  begin
     id 19
     name lradius
     direction 1 -4.4896e-011 -9.1621e-027   
     length 3.03857   
     axis 180 -30 -90   XYZ
    dof rx
    limits (-10.0 170.0)
  end
  begin
     id 20
     name lwrist
     direction 1 -4.4896e-011 -1.41363e-026   
     length 1.51928   
     axis 1.07133e-014 90 90   XYZ
    dof ry
    limits (-180.0 0.0)
 end
  begin
     id 21 
     name lhand
     direction 1 -4.48978e-011 -2.82725e-026   
     length 0.523208   
     axis 1.80403e-014 90 90   XYZ
    dof rx rz
    limits (-90.0 90.0)
           (-45.0 45.0)
  end
  begin
     id 22 
     name lfingers
     direction 1 -4.48977e-011 -5.6545e-026   
     length 0.421824   
     axis 3.60806e-014 90 90   XYZ
    dof rx
    limits (0.0 90.0)
  end
  begin
     id 23
     name lthumb
     direction 0.707107 -6.34962e-011 0.707107   
     length 0.605657   
     axis -90 45 2.85299e-015   XYZ
    dof rx rz
    limits (-45.0 45.0)
           (-45.0 45.0)
  end
  begin
     id 24 
     name rclavicle
     direction -0.957247 0.24311 0.156766   
     length 3.12406  
     axis 0 0 0   XYZ 
    dof ry rz
    limits (-10.0 20.0)
           (-20.0 0.0)
  end
  begin
     id 25 
     name rhumerus
     direction -1 -4.48964e-011 -1.70632e-027  
     length 4.61969   
     axis 180 30 90   XYZ
    dof rx ry rz
    limits (-90.0 60.0)
           (-90.0 90.0)
           (-90.0 90.0)
  end
  begin
     id 26 
     name rradius
     direction -1 -4.48966e-011 -6.60395e-027   
     length 3.09382   
     axis 180 30 90   XYZ
    dof rx
    limits (-10.0 170.0)
  end
  begin
     id 27 
     name rwrist
     direction -1 -4.48963e-011 -1.41363e-026   
     length 1.54691   
     axis 1.07133e-014 -90 -90   XYZ
    dof ry
    limits (-180.0 0.0)
  end
  begin
     id 28
     name rhand
     direction -1 -4.49013e-011 -2.82725e-026   
     length 0.500896   
     axis 1.80403e-014 -90 -90   XYZ
    dof rx rz
    limits (-90.0 90.0)
           (-45.0 45.0)
  end
  begin
     id 29
     name rfingers
     direction -1 -4.48902e-011 -5.6545e-026   
     length 0.403835   
     axis 3.60806e-014 -90 -90   XYZ
    dof rx
    limits (0.0 90.0)
  end
  begin
     id 30
     name rthumb
     direction -0.707107 -6.34953e-011 0.707107   
     length 0.579829   
     axis -90 -45 -2.85299e-015   XYZ
    dof rx rz
    limits (-45.0 45.0)
           (-45.0 45.0)
  end
:hierarchy
  begin
    root lhipjoint rhipjoint lowerback
    lhipjoint lfemur
    lfemur ltibia
    ltibia lfoot
    lfoot ltoes
    rhipjoint rfemur
    rfemur rtibia
    rtibia rfoot
    rfoot rtoes
    lowerback upperback
    upperback thorax
    thorax lowerneck lclavicle rclavicle
    lowerneck upperneck
    upperneck head
    lclavicle lhumerus
    lhumerus lradius
    lradius lwrist
    lwrist lhand lthumb
    lhand lfingers
    rclavicle rhumerus
    rhumerus rradius
    rradius rwrist
    rwrist rhand rthumb
    rhand rfingers
  end

#!OML:ASF E:\madness\Project 1\Capture day 1\Session 1\Female1.ASF
:FULLY-SPECIFIED
:DEGREES
182
root 16.0759 16.0996 -1.54578 -111.549 -86.8185 117.04
lowerback -4.58149 -0.242065 -4.40185
upperback -5.61625 -0.378312 0.477241
thorax -3.21244 -0.0856901 2.95722
lowerneck -0.82891 0.360824 -0.428903
upperneck 12.2617 0.76954 -4.69584
head 4.19111 0.0468576 -1.4774
rclavicle -1.49089e-016 7.15625e-015
rhumerus -46.1972 -3.78031 -80.5656
rradius 29.086
rwrist 10.8253
rhand -6.17978 -49.112
rfingers 7.12502
rthumb 19.6595 -78.1379
lclavicle -1.49089e-016 7.15625e-015
lhumerus -48.3964 16.5834 76.4792
lradius 32.2987
lwrist -21.0058
lhand -19.4177 -17.7033
lfingers 7.12502
lthumb 6.90194 12.1642
rfemur -12.413 18.7598 12.3756
rtibia 24.9725
rfoot -18.9249 -15.4078
rtoes 2.08145
lfemur -11.152 -14.4868 -22.503
ltibia 25.424
lfoot -13.807 18.2056
ltoes 8.42459
183
root 16.0788 16.0965 -1.53508 -111.198 -86.7509 116.659
lowerback -4.62183 -0.259862 -4.48378
upperback -5.60049 -0.396634 0.520389
thorax -3.17205 -0.0919881 3.04734
lowerneck -1.15087 0.427857 -0.612567
upperneck 12.6175 0.8752 -4.60914
head 4.38417 0.0813467 -1.41835
rclavicle 4.96962e-016 1.11319e-014
rhumerus -46.0536 -3.61145 -80.5151
rradius 28.8516
rwrist 10.6374
rhand -5.93047 -49.5989
rfingers 7.12502
rthumb 19.8992 -78.6001
lclavicle 4.96962e-016 1.11319e-014
lhumerus -48.2744 16.7209 76.5132
lradius 32.1036
lwrist -21.0522
lhand -19.4882 -17.7115
lfingers 7.12502
lthumb 6.83385 12.1583
rfemur -12.4094 18.8143 12.2729
rtibia 25.046
rfoot -18.9501 -15.4756
rtoes 4.13472
lfemur -11.1964 -14.2519 -22.6263
ltibia 25.518
lfoot -13.7754 18.0915
ltoes 9.11158
184
root 16.0839 16.0944 -1.52264 -112.435 -86.6223 117.891
lowerback -4.64831 -0.209756 -4.56899
upperback -5.67145 -0.331511 0.545197
thorax -3.23782 -0.0545179 3.12247
lowerneck -1.16141 0.479608 -0.742879
upperneck 12.9062 0.949291 -4.57216
head 4.49219 0.103263 -1.3841
rclavicle 1.98785e-016 1.59028e-015
rhumerus -46.1385 -3.5244 -80.4246
rradius 28.6657
rwrist 10.6052
rhand -6.71446 -49.3587
rfingers 7.12502
rthumb 19.1454 -78.4364
lclavicle 1.98785e-016 1.59028e-015
lhumerus -48.4027 16.7467 76.4667
lradius 32.0615
lwrist -21.18
lhand -19.4169 -17.926
lfingers 7.12502
lthumb 6.90271 11.9415
rfemur -12.4647 18.7774 12.1234
rtibia 25.1212
rfoot -18.8542 -15.4222
rtoes 0.797368
lfemur -11.271 -14.0439 -22.77
ltibia 25.6049
lfoot -13.8076 18.0532
ltoes 9.44841
185
root 16.091 16.0925 -1.50995 -111.173 -86.5654 116.553
lowerback -4.59698 -0.160051 -4.63944
upperback -5.71641 -0.269754 0.512568
thorax -3.31981 -0.019596 3.12976
lowerneck -0.96823 0.464724 -0.617191
upperneck 12.9714 0.928985 -4.70462
head 4.47987 0.0912984 -1.45296
rclavicle -1.39149e-015 -5.1684e-015
rhumerus -46.4261 -3.58452 -80.3612
rradius 28.7802
rwrist 10.6511
rhand -7.84293 -48.3941
rfingers 7.12502
rthumb 18.06 -77.5756
lclavicle -1.39149e-015 -5.1684e-015
lhumerus -48.6058 16.6228 76.4135
lradius 32.2502
lwrist -21.3407
lhand -18.9932 -17.708
lfingers 7.12502
lthumb 7.3117 12.1456
rfemur -12.3941 18.7437 12.0139
rtibia 25.1844
rfoot -18.8453 -15.5353
rtoes 2.47995
lfemur -11.2792 -13.8452 -22.9184
ltibia 25.7029
lfoot -13.898 17.8345
ltoes 8.86516
186
root 16.0952 16.0893 -1.49521 -109.103 -86.5368 114.429
lowerback -4.64153 -0.124796 -4.65766
upperback -5.67036 -0.218265 0.464105
thorax -3.25123 0.00407487 3.09024
lowerneck -1.11737 0.48421 -0.516973
upperneck 13.0258 0.968199 -4.79715
head 4.53272 0.108976 -1.50263
rclavicle -1.2921e-015 9.54166e-015
rhumerus -46.5369 -3.78707 -80.2217
rradius 28.9312
rwrist 10.9991
rhand -7.71767 -47.9597
rfingers 7.12502
rthumb 18.1805 -77.1301
lclavicle -1.2921e-015 9.54166e-015
lhumerus -48.6853 16.3023 76.5656
lradius 32.648
lwrist -21.2354
lhand -18.5053 -17.2708
lfingers 7.12502
lthumb 7.78266 12.566
rfemur -12.3304 18.7993 11.8945
rtibia 25.2343
rfoot -18.9411 -15.7335
rtoes 2.19846
lfemur -11.3099 -13.6875 -23.0668
ltibia 25.8296
lfoot -13.9509 17.6186
ltoes 8.7621
